<svg xmlns="http://www.w3.org/2000/svg" viewBox="0 0 101.66 101.66"><defs><style>.cls-1{fill:#201747;}</style></defs><title>accessibility  navy</title><g id="Layer_2" data-name="Layer 2"><g id="Layer_1-2" data-name="Layer 1"><path class="cls-1" d="M50.09,31.58a6.37,6.37,0,1,0-6.36-6.37A6.38,6.38,0,0,0,50.09,31.58Zm0-10.55a4.19,4.19,0,1,1-4.18,4.18A4.19,4.19,0,0,1,50.09,21Z"/><path class="cls-1" d="M73.52,39.76a3.72,3.72,0,0,0-.74-7.4L50.1,34,28.91,32.36a3.68,3.68,0,0,0-2.72.81,3.63,3.63,0,0,0-1.36,2.5,3.7,3.7,0,0,0,3.27,4.08l13.5,1.88V56l-8,25.73a4.26,4.26,0,0,0,8.13,2.47l7.61-22.92h1.09L58,84.15a3.81,3.81,0,0,0,2,2.36,4.31,4.31,0,0,0,1.87.43,4.87,4.87,0,0,0,1.3-.19,4.14,4.14,0,0,0,2.92-5l-8-25.8v-14ZM56,56.39l8.07,26a2,2,0,0,1-1.47,2.32,2.15,2.15,0,0,1-1.6-.11,1.68,1.68,0,0,1-.91-1.06L52.25,59.83a1.09,1.09,0,0,0-1-.74H48.55a1.1,1.1,0,0,0-1,.74L39.65,83.52a2.09,2.09,0,0,1-4-1.17l8-25.89a1.13,1.13,0,0,0,.05-.32V40.68a1.1,1.1,0,0,0-.94-1.08l-14.48-2A1.54,1.54,0,0,1,27,35.9a1.54,1.54,0,0,1,1.73-1.37L50,36.15h.16L73,34.52a1.56,1.56,0,0,1,1.7,1.38,1.56,1.56,0,0,1-1.41,1.7L56.91,39.87A1.08,1.08,0,0,0,56,40.94V56.07A1.19,1.19,0,0,0,56,56.39Z"/><polygon class="cls-1" points="9.1 9.32 26.9 9.32 26.9 0.22 0 0.22 0 27.12 9.1 27.12 9.1 9.32"/><polygon class="cls-1" points="92.56 74.54 92.56 92.34 74.76 92.34 74.76 101.43 101.66 101.43 101.66 74.54 92.56 74.54"/><polygon class="cls-1" points="9.32 74.76 0.22 74.76 0.22 101.66 27.12 101.66 27.12 92.56 9.32 92.56 9.32 74.76"/><polygon class="cls-1" points="92.34 26.89 101.44 26.89 101.44 0 74.54 0 74.54 9.1 92.34 9.1 92.34 26.89"/></g></g></svg>