<svg xmlns="http://www.w3.org/2000/svg" viewBox="0 0 101.66 101.66"><defs><style>.cls-1{fill:#201747;}</style></defs><title>innovative training navy</title><g id="Layer_2" data-name="Layer 2"><g id="Layer_1-2" data-name="Layer 1"><path class="cls-1" d="M70.23,28.13a1,1,0,0,0,.45.1,1.09,1.09,0,0,0,1-.63c.12-.25,2.69-5.57,8.6-6l-2.16,2.1a.9.9,0,0,0,0,1.28h0a.9.9,0,0,0,1.28,0l3.86-3.78a.91.91,0,0,0,0-1.33l-4-3.58A.91.91,0,1,0,78,17.66l2,1.77c-7.11.63-10.23,7.19-10.27,7.26A1.09,1.09,0,0,0,70.23,28.13Z"/><path class="cls-1" d="M79.58,82.5a.91.91,0,0,0-.08,1.28.9.9,0,0,0,1.28.08l4-3.58a.91.91,0,0,0,0-1.33L81,75.18a.9.9,0,0,0-1.28,0h0a.9.9,0,0,0,0,1.28l2.15,2.11c-5.9-.44-8.48-5.77-8.6-6a1.08,1.08,0,0,0-1-.63,1.23,1.23,0,0,0-.46.1,1.09,1.09,0,0,0-.53,1.44c0,.08,3.15,6.63,10.27,7.26Z"/><path class="cls-1" d="M33.62,73.53a1.1,1.1,0,0,0-1.45.52c-.11.25-2.69,5.58-8.59,6L25.73,78a.9.9,0,0,0,0-1.28h0a.9.9,0,0,0-1.28,0L20.6,80.45a.9.9,0,0,0,0,1.32l4.05,3.58A.91.91,0,1,0,25.88,84l-2-1.77C31,81.59,34.11,75,34.15,75A1.09,1.09,0,0,0,33.62,73.53Z"/><path class="cls-1" d="M22.08,24.5a.91.91,0,0,0-1.2-1.36l-4.05,3.58a.91.91,0,0,0,0,1.33l3.86,3.78a.91.91,0,0,0,1.29,0h0a.9.9,0,0,0,0-1.28l-2.15-2.11c5.9.44,8.48,5.77,8.59,6a1.11,1.11,0,0,0,1,.63,1.06,1.06,0,0,0,.46-.1,1.09,1.09,0,0,0,.53-1.44c0-.08-3.15-6.63-10.27-7.26Z"/><path class="cls-1" d="M80.36,56.89a12.41,12.41,0,0,0-5.52-10.27v-.13A18.1,18.1,0,0,0,40.28,39a7.33,7.33,0,0,0-3.36-.8,7.49,7.49,0,0,0-7.48,7.47A7.58,7.58,0,0,0,29.83,48a10.73,10.73,0,1,0,7.39,19.9,15.25,15.25,0,0,0,25.66.21A12.34,12.34,0,0,0,80.36,56.89ZM68,67.06a10.21,10.21,0,0,1-5-1.32,1.07,1.07,0,0,0-.82-.1,1.09,1.09,0,0,0-.66.51,13.07,13.07,0,0,1-23-.28,1,1,0,0,0-.71-.55,1.07,1.07,0,0,0-.25,0,1.12,1.12,0,0,0-.63.2A8.56,8.56,0,1,1,31.49,50a1.05,1.05,0,0,0,.89-.58,1.08,1.08,0,0,0,0-1.06,5.29,5.29,0,0,1,7.77-6.89,1.09,1.09,0,0,0,1,.18,1.06,1.06,0,0,0,.71-.66,15.93,15.93,0,0,1,30.86,5.54c0,.23,0,.45,0,.68a1.09,1.09,0,0,0,.53,1A10.15,10.15,0,0,1,68,67.06Z"/><polygon class="cls-1" points="9.1 9.32 26.9 9.32 26.9 0.22 0 0.22 0 27.12 9.1 27.12 9.1 9.32"/><polygon class="cls-1" points="92.56 74.54 92.56 92.34 74.76 92.34 74.76 101.43 101.66 101.43 101.66 74.54 92.56 74.54"/><polygon class="cls-1" points="9.32 74.76 0.22 74.76 0.22 101.66 27.12 101.66 27.12 92.56 9.32 92.56 9.32 74.76"/><polygon class="cls-1" points="92.34 26.89 101.44 26.89 101.44 0 74.54 0 74.54 9.1 92.34 9.1 92.34 26.89"/></g></g></svg>