<svg xmlns="http://www.w3.org/2000/svg" viewBox="0 0 101.66 101.66"><defs><style>.cls-1{fill:#201747;}</style></defs><title>impact navy</title><g id="Layer_2" data-name="Layer 2"><g id="Layer_1-2" data-name="Layer 1"><path class="cls-1" d="M77.41,71A6.45,6.45,0,0,0,72,64.66a.44.44,0,0,0,0-.1v-29h.67a1.08,1.08,0,0,0,1.09-1.08V30.34h6.42a1.08,1.08,0,0,0,1.08-1.09V25.07A1.08,1.08,0,0,0,80.22,24H24.6a1.09,1.09,0,0,0-1.09,1.09v4.18a1.09,1.09,0,0,0,1.09,1.09h6.2v4.13a1.08,1.08,0,0,0,1.09,1.08h.19L23.56,58.76h0a6.7,6.7,0,0,0-1.66-.22,6.46,6.46,0,0,0-2.68,12.33,6.54,6.54,0,0,0,2.68.58,6.46,6.46,0,0,0,3.62-11.8l.09-.15,8.79-24h1a1.08,1.08,0,0,0,1.08-1.08V30.34h6.76v4.13a1.08,1.08,0,0,0,1.09,1.08H45v29s0,.06,0,.1a6.45,6.45,0,1,0,7.29,8.07,6.45,6.45,0,0,0,12.44,0A6.45,6.45,0,0,0,77.41,71ZM25.79,66.78a4.29,4.29,0,0,1-3.89,2.51,4.2,4.2,0,0,1-1.78-.39,4.28,4.28,0,0,1,1.78-8.18,4.2,4.2,0,0,1,1.78.39A4.27,4.27,0,0,1,25.79,66.78ZM33,33.38V31.1h1.33v2.28Zm37.31,0V31.1h1.33v2.28ZM25.68,26.15H79.13v2H25.68Zm32.17,7.23V31.1h1.33v2.28Zm-12.44,0V31.1h1.34v2.28Zm.67,41.92A4.28,4.28,0,1,1,50.36,71,4.28,4.28,0,0,1,46.08,75.3Zm6.22-6a6.45,6.45,0,0,0-5.15-4.64s0-.07,0-.1v-29h.66a1.08,1.08,0,0,0,1.09-1.08V30.34h6.76v4.13a1.08,1.08,0,0,0,1.08,1.08h.67v29s0,.06,0,.1A6.45,6.45,0,0,0,52.3,69.3Zm6.22,6A4.28,4.28,0,1,1,62.8,71,4.28,4.28,0,0,1,58.52,75.3Zm6.22-6a6.46,6.46,0,0,0-5.15-4.64s0-.06,0-.1v-29h.66a1.08,1.08,0,0,0,1.09-1.08V30.34h6.75v4.13a1.08,1.08,0,0,0,1.09,1.08h.67v29a.44.44,0,0,0,0,.1A6.45,6.45,0,0,0,64.74,69.3Zm6.21,6A4.28,4.28,0,1,1,75.24,71,4.28,4.28,0,0,1,71,75.3Z"/><polygon class="cls-1" points="9.1 9.32 26.9 9.32 26.9 0.22 0 0.22 0 27.12 9.1 27.12 9.1 9.32"/><polygon class="cls-1" points="92.56 74.54 92.56 92.34 74.76 92.34 74.76 101.43 101.66 101.43 101.66 74.54 92.56 74.54"/><polygon class="cls-1" points="9.32 74.76 0.22 74.76 0.22 101.66 27.12 101.66 27.12 92.56 9.32 92.56 9.32 74.76"/><polygon class="cls-1" points="92.34 26.89 101.44 26.89 101.44 0 74.54 0 74.54 9.1 92.34 9.1 92.34 26.89"/></g></g></svg>