<svg xmlns="http://www.w3.org/2000/svg" viewBox="0 0 101.66 101.66"><defs><style>.cls-1{fill:#201747;}</style></defs><title>relevance navy</title><g id="Layer_2" data-name="Layer 2"><g id="Layer_1-2" data-name="Layer 1"><path class="cls-1" d="M49.77,18.22A32.62,32.62,0,1,0,82.39,50.84,32.66,32.66,0,0,0,49.77,18.22Zm0,63.06A30.44,30.44,0,1,1,80.21,50.84,30.47,30.47,0,0,1,49.77,81.28Z"/><path class="cls-1" d="M49.77,30.83a20,20,0,1,0,20,20A20,20,0,0,0,49.77,30.83Zm0,37.85A17.84,17.84,0,1,1,67.61,50.84,17.86,17.86,0,0,1,49.77,68.68Z"/><path class="cls-1" d="M49.77,43.43a7.41,7.41,0,1,0,7.41,7.41A7.41,7.41,0,0,0,49.77,43.43Zm0,12.65A5.24,5.24,0,1,1,55,50.84,5.25,5.25,0,0,1,49.77,56.08Z"/><polygon class="cls-1" points="9.1 9.32 26.9 9.32 26.9 0.22 0 0.22 0 27.12 9.1 27.12 9.1 9.32"/><polygon class="cls-1" points="92.56 74.54 92.56 92.34 74.76 92.34 74.76 101.43 101.66 101.43 101.66 74.54 92.56 74.54"/><polygon class="cls-1" points="9.32 74.76 0.22 74.76 0.22 101.66 27.12 101.66 27.12 92.56 9.32 92.56 9.32 74.76"/><polygon class="cls-1" points="92.34 26.89 101.44 26.89 101.44 0 74.54 0 74.54 9.1 92.34 9.1 92.34 26.89"/></g></g></svg>